<svg width="253" height="73" viewBox="0 0 253 73" fill="none" xmlns="http://www.w3.org/2000/svg">
<g filter="url(#filter0_d_138_523)">
<rect x="14.5264" width="220.921" height="65" rx="30" fill="#1F2020"/>
<path d="M47.1679 22.48H50.7839V42.8H57.5359V46H47.1679V22.48ZM67.7004 46.32C65.951 46.32 64.4897 45.9787 63.3164 45.296C62.143 44.592 61.279 43.664 60.7244 42.512C60.1697 41.3387 59.8924 40.0587 59.8924 38.672C59.8924 37.1147 60.2124 35.7493 60.8524 34.576C61.5137 33.4027 62.4204 32.5067 63.5724 31.888C64.7244 31.248 66.0257 30.928 67.4764 30.928C69.7377 30.928 71.4124 31.5573 72.5004 32.816C73.6097 34.0533 74.1644 35.8027 74.1644 38.064C74.1644 38.64 74.1324 39.2373 74.0684 39.856H63.5084C63.743 41.1573 64.2017 42.096 64.8844 42.672C65.5884 43.248 66.559 43.536 67.7964 43.536C68.8204 43.536 69.663 43.4507 70.3244 43.28C70.9857 43.1093 71.5937 42.8747 72.1484 42.576L73.2044 45.04C72.671 45.3813 71.9457 45.68 71.0284 45.936C70.111 46.192 69.0017 46.32 67.7004 46.32ZM70.8044 37.456C70.8257 36.1333 70.5377 35.2053 69.9404 34.672C69.343 34.1173 68.4897 33.84 67.3804 33.84C65.1404 33.84 63.8497 35.0453 63.5084 37.456H70.8044ZM84.2836 46.32C82.961 46.32 81.7343 46.0107 80.6036 45.392C79.4943 44.752 78.5983 43.856 77.9156 42.704C77.2543 41.5307 76.9236 40.1653 76.9236 38.608C76.9236 37.072 77.2116 35.728 77.7876 34.576C78.385 33.424 79.2276 32.528 80.3156 31.888C81.4036 31.248 82.6836 30.928 84.1556 30.928C85.009 30.928 85.809 31.0773 86.5556 31.376C87.3023 31.6747 87.9316 32.048 88.4436 32.496C88.9556 32.9227 89.297 33.3493 89.4676 33.776L89.5316 31.312H92.8276V46H89.5636L89.4996 43.408C89.137 44.176 88.4756 44.8587 87.5156 45.456C86.5556 46.032 85.4783 46.32 84.2836 46.32ZM84.8596 43.44C86.0756 43.44 87.0996 43.024 87.9316 42.192C88.7636 41.3387 89.1796 40.2293 89.1796 38.864V38.64C89.1796 37.7227 88.9876 36.9013 88.6036 36.176C88.2196 35.4507 87.697 34.8853 87.0356 34.48C86.3743 34.0747 85.649 33.872 84.8596 33.872C83.4943 33.872 82.4383 34.32 81.6916 35.216C80.945 36.0907 80.5716 37.232 80.5716 38.64C80.5716 40.0693 80.9343 41.232 81.6596 42.128C82.4063 43.0027 83.473 43.44 84.8596 43.44ZM97.3791 31.312H100.835V34.192C101.176 33.2107 101.731 32.4213 102.499 31.824C103.267 31.2267 104.142 30.928 105.123 30.928C105.806 30.928 106.275 30.992 106.531 31.12L106.051 34.608C105.859 34.48 105.443 34.416 104.803 34.416C103.8 34.416 102.883 34.736 102.051 35.376C101.24 36.016 100.835 37.04 100.835 38.448V46H97.3791V31.312ZM108.975 31.312H112.367L112.399 34C112.804 33.104 113.444 32.368 114.319 31.792C115.194 31.216 116.218 30.928 117.391 30.928C118.906 30.928 120.068 31.248 120.879 31.888C121.69 32.5067 122.234 33.3813 122.511 34.512C122.788 35.6427 122.927 37.1147 122.927 38.928V46H119.471V39.024C119.471 37.168 119.29 35.8347 118.927 35.024C118.564 34.192 117.818 33.776 116.687 33.776C116.047 33.776 115.396 33.9787 114.735 34.384C114.074 34.768 113.519 35.3333 113.071 36.08C112.644 36.8267 112.431 37.7013 112.431 38.704V46H108.975V31.312ZM141.497 35.024L140.025 31.696L139.353 35.024L137.177 46H133.625L138.489 22.48H138.873L145.337 35.184L147.257 39.44L149.177 35.184L155.513 22.48H155.865L160.921 46H157.401L155.033 35.024L154.329 31.696L153.049 35.024L147.353 46H147.161L141.497 35.024ZM170.698 46.32C169.183 46.32 167.839 45.9787 166.666 45.296C165.493 44.6133 164.586 43.6853 163.946 42.512C163.306 41.3387 162.986 40.0373 162.986 38.608C162.986 37.2 163.295 35.9093 163.914 34.736C164.554 33.5627 165.461 32.6347 166.634 31.952C167.807 31.2693 169.162 30.928 170.698 30.928C172.234 30.928 173.578 31.2693 174.73 31.952C175.903 32.6347 176.799 33.5627 177.418 34.736C178.058 35.9093 178.378 37.2 178.378 38.608C178.378 40.0373 178.058 41.3387 177.418 42.512C176.778 43.6853 175.871 44.6133 174.698 45.296C173.546 45.9787 172.213 46.32 170.698 46.32ZM170.794 43.504C172.031 43.504 173.002 43.0453 173.706 42.128C174.431 41.2107 174.794 40.0587 174.794 38.672C174.794 37.2853 174.41 36.1227 173.642 35.184C172.874 34.224 171.861 33.744 170.602 33.744C169.386 33.744 168.405 34.2133 167.658 35.152C166.933 36.0907 166.57 37.264 166.57 38.672C166.57 40.0373 166.965 41.1893 167.754 42.128C168.543 43.0453 169.557 43.504 170.794 43.504ZM181.973 31.312H185.429V34.192C185.77 33.2107 186.325 32.4213 187.093 31.824C187.861 31.2267 188.736 30.928 189.717 30.928C190.4 30.928 190.869 30.992 191.125 31.12L190.645 34.608C190.453 34.48 190.037 34.416 189.397 34.416C188.394 34.416 187.477 34.736 186.645 35.376C185.834 36.016 185.429 37.04 185.429 38.448V46H181.973V31.312ZM200.513 46.32C198.764 46.32 197.302 45.9787 196.129 45.296C194.956 44.592 194.092 43.664 193.537 42.512C192.982 41.3387 192.705 40.0587 192.705 38.672C192.705 37.1147 193.025 35.7493 193.665 34.576C194.326 33.4027 195.233 32.5067 196.385 31.888C197.537 31.248 198.838 30.928 200.289 30.928C202.55 30.928 204.225 31.5573 205.313 32.816C206.422 34.0533 206.977 35.8027 206.977 38.064C206.977 38.64 206.945 39.2373 206.881 39.856H196.321C196.556 41.1573 197.014 42.096 197.697 42.672C198.401 43.248 199.372 43.536 200.609 43.536C201.633 43.536 202.476 43.4507 203.137 43.28C203.798 43.1093 204.406 42.8747 204.961 42.576L206.017 45.04C205.484 45.3813 204.758 45.68 203.841 45.936C202.924 46.192 201.814 46.32 200.513 46.32ZM203.617 37.456C203.638 36.1333 203.35 35.2053 202.753 34.672C202.156 34.1173 201.302 33.84 200.193 33.84C197.953 33.84 196.662 35.0453 196.321 37.456H203.617Z" fill="white"/>
</g>
<defs>
<filter id="filter0_d_138_523" x="10.5264" y="0" width="228.921" height="73" filterUnits="userSpaceOnUse" color-interpolation-filters="sRGB">
<feFlood flood-opacity="0" result="BackgroundImageFix"/>
<feColorMatrix in="SourceAlpha" type="matrix" values="0 0 0 0 0 0 0 0 0 0 0 0 0 0 0 0 0 0 127 0" result="hardAlpha"/>
<feOffset dy="4"/>
<feGaussianBlur stdDeviation="2"/>
<feComposite in2="hardAlpha" operator="out"/>
<feColorMatrix type="matrix" values="0 0 0 0 0 0 0 0 0 0 0 0 0 0 0 0 0 0 0.25 0"/>
<feBlend mode="normal" in2="BackgroundImageFix" result="effect1_dropShadow_138_523"/>
<feBlend mode="normal" in="SourceGraphic" in2="effect1_dropShadow_138_523" result="shape"/>
</filter>
</defs>
</svg>
