<svg width="253" height="65" viewBox="0 0 253 65" fill="none" xmlns="http://www.w3.org/2000/svg">
<rect x="14.5264" width="220.921" height="65" rx="30" fill="#2D2424" fill-opacity="0.79"/>
<path d="M67.3571 46.32C66.0771 46.32 64.8078 46.096 63.5491 45.648C62.2905 45.2 61.3838 44.6987 60.8291 44.144L62.5251 41.104C62.9731 41.5093 63.6665 41.936 64.6051 42.384C65.5651 42.8107 66.4825 43.024 67.3571 43.024C68.4878 43.024 69.4051 42.7573 70.1091 42.224C70.8345 41.6907 71.1971 40.9547 71.1971 40.016C71.1971 39.2907 71.0051 38.6613 70.6211 38.128C70.2371 37.5947 69.7678 37.1573 69.2131 36.816C68.6585 36.4533 67.8691 36.016 66.8451 35.504C65.6291 34.9067 64.7971 34.4587 64.3491 34.16C62.2798 32.7733 61.2451 30.8533 61.2451 28.4C61.2451 26.3733 61.9171 24.8267 63.2611 23.76C64.6051 22.672 66.3011 22.128 68.3491 22.128C70.5465 22.128 72.4131 22.7573 73.9491 24.016L72.2531 26.928C71.8478 26.5013 71.2718 26.1387 70.5251 25.84C69.7998 25.52 69.0211 25.36 68.1891 25.36C67.1225 25.36 66.2798 25.6053 65.6611 26.096C65.0638 26.5653 64.7651 27.2693 64.7651 28.208C64.7651 28.8693 64.9571 29.4667 65.3411 30C65.7251 30.512 66.2051 30.96 66.7811 31.344C67.3785 31.728 68.1785 32.1973 69.1811 32.752C70.1411 33.2853 70.8771 33.712 71.3891 34.032C71.9011 34.3307 72.3811 34.6933 72.8291 35.12C73.4478 35.6747 73.9491 36.336 74.3331 37.104C74.7171 37.872 74.9091 38.7147 74.9091 39.632C74.9091 41.0613 74.5785 42.2773 73.9171 43.28C73.2771 44.2827 72.3811 45.04 71.2291 45.552C70.0985 46.064 68.8078 46.32 67.3571 46.32ZM85.4816 46.32C83.7323 46.32 82.271 45.9787 81.0976 45.296C79.9243 44.592 79.0603 43.664 78.5056 42.512C77.951 41.3387 77.6736 40.0587 77.6736 38.672C77.6736 37.1147 77.9936 35.7493 78.6336 34.576C79.295 33.4027 80.2016 32.5067 81.3536 31.888C82.5056 31.248 83.807 30.928 85.2576 30.928C87.519 30.928 89.1936 31.5573 90.2816 32.816C91.391 34.0533 91.9456 35.8027 91.9456 38.064C91.9456 38.64 91.9136 39.2373 91.8496 39.856H81.2896C81.5243 41.1573 81.983 42.096 82.6656 42.672C83.3696 43.248 84.3403 43.536 85.5776 43.536C86.6016 43.536 87.4443 43.4507 88.1056 43.28C88.767 43.1093 89.375 42.8747 89.9296 42.576L90.9856 45.04C90.4523 45.3813 89.727 45.68 88.8096 45.936C87.8923 46.192 86.783 46.32 85.4816 46.32ZM88.5856 37.456C88.607 36.1333 88.319 35.2053 87.7216 34.672C87.1243 34.1173 86.271 33.84 85.1616 33.84C82.9216 33.84 81.631 35.0453 81.2896 37.456H88.5856ZM102.513 46.32C100.764 46.32 99.3022 45.9787 98.1289 45.296C96.9555 44.592 96.0915 43.664 95.5369 42.512C94.9822 41.3387 94.7049 40.0587 94.7049 38.672C94.7049 37.1147 95.0249 35.7493 95.6649 34.576C96.3262 33.4027 97.2329 32.5067 98.3849 31.888C99.5369 31.248 100.838 30.928 102.289 30.928C104.55 30.928 106.225 31.5573 107.313 32.816C108.422 34.0533 108.977 35.8027 108.977 38.064C108.977 38.64 108.945 39.2373 108.881 39.856H98.3209C98.5555 41.1573 99.0142 42.096 99.6969 42.672C100.401 43.248 101.372 43.536 102.609 43.536C103.633 43.536 104.476 43.4507 105.137 43.28C105.798 43.1093 106.406 42.8747 106.961 42.576L108.017 45.04C107.484 45.3813 106.758 45.68 105.841 45.936C104.924 46.192 103.814 46.32 102.513 46.32ZM105.617 37.456C105.638 36.1333 105.35 35.2053 104.753 34.672C104.156 34.1173 103.302 33.84 102.193 33.84C99.9529 33.84 98.6622 35.0453 98.3209 37.456H105.617ZM126.716 35.024L125.244 31.696L124.572 35.024L122.396 46H118.844L123.708 22.48H124.092L130.556 35.184L132.476 39.44L134.396 35.184L140.732 22.48H141.084L146.14 46H142.62L140.252 35.024L139.548 31.696L138.268 35.024L132.572 46H132.38L126.716 35.024ZM155.917 46.32C154.402 46.32 153.058 45.9787 151.885 45.296C150.712 44.6133 149.805 43.6853 149.165 42.512C148.525 41.3387 148.205 40.0373 148.205 38.608C148.205 37.2 148.514 35.9093 149.133 34.736C149.773 33.5627 150.68 32.6347 151.853 31.952C153.026 31.2693 154.381 30.928 155.917 30.928C157.453 30.928 158.797 31.2693 159.949 31.952C161.122 32.6347 162.018 33.5627 162.637 34.736C163.277 35.9093 163.597 37.2 163.597 38.608C163.597 40.0373 163.277 41.3387 162.637 42.512C161.997 43.6853 161.09 44.6133 159.917 45.296C158.765 45.9787 157.432 46.32 155.917 46.32ZM156.013 43.504C157.25 43.504 158.221 43.0453 158.925 42.128C159.65 41.2107 160.013 40.0587 160.013 38.672C160.013 37.2853 159.629 36.1227 158.861 35.184C158.093 34.224 157.08 33.744 155.821 33.744C154.605 33.744 153.624 34.2133 152.877 35.152C152.152 36.0907 151.789 37.264 151.789 38.672C151.789 40.0373 152.184 41.1893 152.973 42.128C153.762 43.0453 154.776 43.504 156.013 43.504ZM167.192 31.312H170.648V34.192C170.989 33.2107 171.544 32.4213 172.312 31.824C173.08 31.2267 173.954 30.928 174.936 30.928C175.618 30.928 176.088 30.992 176.344 31.12L175.864 34.608C175.672 34.48 175.256 34.416 174.616 34.416C173.613 34.416 172.696 34.736 171.864 35.376C171.053 36.016 170.648 37.04 170.648 38.448V46H167.192V31.312ZM185.732 46.32C183.982 46.32 182.521 45.9787 181.348 45.296C180.174 44.592 179.31 43.664 178.756 42.512C178.201 41.3387 177.924 40.0587 177.924 38.672C177.924 37.1147 178.244 35.7493 178.884 34.576C179.545 33.4027 180.452 32.5067 181.604 31.888C182.756 31.248 184.057 30.928 185.508 30.928C187.769 30.928 189.444 31.5573 190.532 32.816C191.641 34.0533 192.196 35.8027 192.196 38.064C192.196 38.64 192.164 39.2373 192.1 39.856H181.54C181.774 41.1573 182.233 42.096 182.916 42.672C183.62 43.248 184.59 43.536 185.828 43.536C186.852 43.536 187.694 43.4507 188.356 43.28C189.017 43.1093 189.625 42.8747 190.18 42.576L191.236 45.04C190.702 45.3813 189.977 45.68 189.06 45.936C188.142 46.192 187.033 46.32 185.732 46.32ZM188.836 37.456C188.857 36.1333 188.569 35.2053 187.972 34.672C187.374 34.1173 186.521 33.84 185.412 33.84C183.172 33.84 181.881 35.0453 181.54 37.456H188.836Z" fill="white"/>
</svg>
