<svg width="247" height="77" viewBox="0 0 247 77" fill="none" xmlns="http://www.w3.org/2000/svg">
<path d="M12.702 7.232H0.67V0.959999H31.966V7.232H19.806V48H12.702V7.232ZM52.2705 0.895996L74.9265 48H66.6705L62.6385 38.784H41.0705L37.0385 48H29.0385L51.5665 0.895996H52.2705ZM49.0705 20.928L43.9505 32.32H59.8225L54.7665 20.992L52.0145 14.528H51.8865L49.0705 20.928ZM85.843 17.536L86.035 22.656V48H78.867V0.895996H79.763L107.411 31.744L107.155 26.368V0.959999H114.323V48H113.363L85.843 17.536ZM141.521 0.895996L164.177 48H155.921L151.889 38.784H130.321L126.289 48H118.288L140.817 0.895996H141.521ZM138.321 20.928L133.201 32.32H149.073L144.017 20.992L141.265 14.528H141.137L138.321 20.928ZM178.997 26.944L175.157 31.68V48H168.117V0.959999H175.157V21.952L191.285 0.959999H199.861L183.669 21.632L202.165 48H193.397L178.997 26.944ZM223.396 0.895996L246.052 48H237.796L233.764 38.784H212.196L208.164 48H200.163L222.692 0.895996H223.396ZM220.196 20.928L215.076 32.32H230.948L225.892 20.992L223.14 14.528H223.012L220.196 20.928ZM173.225 76.2C171.771 76.2 170.471 75.8667 169.325 75.2C168.178 74.5333 167.278 73.62 166.625 72.46C165.985 71.2867 165.665 69.9733 165.665 68.52C165.665 67.1067 165.991 65.8333 166.645 64.7C167.298 63.5667 168.205 62.68 169.365 62.04C170.525 61.4 171.831 61.08 173.285 61.08C174.071 61.08 174.778 61.1533 175.405 61.3C176.045 61.4333 176.565 61.5933 176.965 61.78C177.365 61.9533 177.638 62.1067 177.785 62.24L176.905 64.12C176.078 63.4533 174.858 63.12 173.245 63.12C172.178 63.12 171.251 63.3533 170.465 63.82C169.678 64.2867 169.078 64.92 168.665 65.72C168.251 66.52 168.045 67.4133 168.045 68.4C168.045 69.52 168.265 70.52 168.705 71.4C169.158 72.28 169.778 72.9667 170.565 73.46C171.365 73.94 172.265 74.18 173.265 74.18C173.891 74.18 174.491 74.1067 175.065 73.96C175.638 73.8 176.125 73.5533 176.525 73.22V70.38H173.505V68.32H178.745V74.08C178.265 74.68 177.538 75.1867 176.565 75.6C175.605 76 174.491 76.2 173.225 76.2ZM186.308 76.2C184.468 76.2 183.134 75.6467 182.308 74.54C181.481 73.4333 181.068 71.8267 181.068 69.72V61.3H183.308V69.76C183.308 71.32 183.541 72.44 184.008 73.12C184.474 73.7867 185.241 74.12 186.308 74.12C187.374 74.12 188.134 73.7933 188.588 73.14C189.054 72.4733 189.288 71.3467 189.288 69.76V61.3H191.548V69.72C191.548 71.8133 191.108 73.42 190.228 74.54C189.361 75.6467 188.054 76.2 186.308 76.2ZM194.75 61.3H196.99V76H194.75V61.3ZM203.169 63.26H199.409V61.3H209.189V63.26H205.389V76H203.169V63.26ZM215.534 61.28L222.614 76H220.034L218.774 73.12H212.034L210.774 76H208.274L215.314 61.28H215.534ZM214.534 67.54L212.934 71.1H217.894L216.314 67.56L215.454 65.54H215.414L214.534 67.54ZM231.185 76L228.225 70.44C227.612 70.4667 227.065 70.48 226.585 70.48H226.025V76H223.845V61.3H227.185C228.878 61.3 230.272 61.6533 231.365 62.36C232.458 63.0533 233.005 64.1867 233.005 65.76C233.005 66.7467 232.772 67.6 232.305 68.32C231.852 69.0267 231.172 69.5733 230.265 69.96L233.765 76H231.185ZM227.445 68.66C228.752 68.66 229.645 68.38 230.125 67.82C230.618 67.2467 230.865 66.5667 230.865 65.78C230.865 64.0333 229.698 63.16 227.365 63.16H226.025V68.66H227.445ZM239.432 76.2C238.632 76.2 237.839 76.06 237.052 75.78C236.266 75.5 235.699 75.1867 235.352 74.84L236.412 72.94C236.692 73.1933 237.126 73.46 237.712 73.74C238.312 74.0067 238.886 74.14 239.432 74.14C240.139 74.14 240.712 73.9733 241.152 73.64C241.606 73.3067 241.832 72.8467 241.832 72.26C241.832 71.8067 241.712 71.4133 241.472 71.08C241.232 70.7467 240.939 70.4733 240.592 70.26C240.246 70.0333 239.752 69.76 239.112 69.44C238.352 69.0667 237.832 68.7867 237.552 68.6C236.259 67.7333 235.612 66.5333 235.612 65C235.612 63.7333 236.032 62.7667 236.872 62.1C237.712 61.42 238.772 61.08 240.052 61.08C241.426 61.08 242.592 61.4733 243.552 62.26L242.492 64.08C242.239 63.8133 241.879 63.5867 241.412 63.4C240.959 63.2 240.472 63.1 239.952 63.1C239.286 63.1 238.759 63.2533 238.372 63.56C237.999 63.8533 237.812 64.2933 237.812 64.88C237.812 65.2933 237.932 65.6667 238.172 66C238.412 66.32 238.712 66.6 239.072 66.84C239.446 67.08 239.946 67.3733 240.572 67.72C241.172 68.0533 241.632 68.32 241.952 68.52C242.272 68.7067 242.572 68.9333 242.852 69.2C243.239 69.5467 243.552 69.96 243.792 70.44C244.032 70.92 244.152 71.4467 244.152 72.02C244.152 72.9133 243.946 73.6733 243.532 74.3C243.132 74.9267 242.572 75.4 241.852 75.72C241.146 76.04 240.339 76.2 239.432 76.2Z" fill="#E0C097"/>
</svg>
